<?xml version="1.0" encoding="UTF-8" standalone="no"?>
<!-- Created with Inkscape (http://www.inkscape.org/) -->

<svg
   width="476.03961mm"
   height="476.03961mm"
   viewBox="0 0 476.03961 476.03961"
   version="1.1"
   id="svg1"
   xmlns="http://www.w3.org/2000/svg"
   xmlns:svg="http://www.w3.org/2000/svg">
  <defs
     id="defs1" />
  <g
     id="layer1"
     transform="translate(29.897894,125.14806)">
    <rect
       style="fill:#08a852;fill-opacity:1;stroke:#000000;stroke-width:0;stroke-linecap:square;stroke-linejoin:miter;stroke-dasharray:none;stroke-opacity:1;paint-order:normal"
       id="rect56"
       width="476.03961"
       height="476.03961"
       x="-29.897894"
       y="-125.14806"
       ry="119.0625" />
    <path
       style="fill:#ffffff;fill-opacity:1;stroke-width:0.264583"
       d="m 212.42552,245.58806 -22.61031,-22.33745 22.99052,-22.44725 22.99055,-22.44725 0.21767,7.1755 0.21765,7.1755 h 36.55525 c 32.66258,0 36.50724,-0.12514 36.10417,-1.17554 -0.2481,-0.64664 -4.41439,-8.03487 -9.25846,-16.41872 -4.84404,-8.38359 -9.42586,-16.324 -10.18183,-17.64559 -0.75594,-1.32133 -3.98356,-6.92309 -7.17248,-12.44838 -3.18894,-5.5253 -5.79059,-10.31637 -5.78149,-10.64631 0.0298,-1.07791 52.55384,-30.843 53.2189,-30.15906 0.64937,0.66808 2.37051,3.61633 23.02737,39.44462 22.47284,38.97815 21.71251,37.5412 22.28816,42.12431 1.10053,8.76194 0.71361,9.60358 -23.97731,52.17107 -4.85341,8.36745 -7.53232,11.24109 -12.96802,13.91073 l -4.19195,2.05872 -48.8587,0.21167 -48.8587,0.2114 v 6.82255 c 0,3.75258 -0.25665,6.80799 -0.57034,6.78974 -0.31369,-0.0185 -10.74496,-10.0846 -23.18065,-22.37026 z m -131.133605,7.62053 c -3.953166,-1.23613 -7.618281,-3.47451 -10.261045,-6.26639 -1.76358,-1.8632 -23.849964,-39.24115 -28.037154,-47.44852 -1.993953,-3.90869 -2.698803,-11.03816 -1.549347,-15.67128 0.499798,-2.01453 3.066997,-7.42685 5.704866,-12.02769 2.637869,-4.60057 9.240943,-16.06444 14.673474,-25.47488 24.641492,-42.68522 27.616547,-48.006524 27.208612,-48.666659 -0.238601,-0.386027 -2.815167,-1.998663 -5.725689,-3.583782 -5.118788,-2.78765 -6.427311,-4.022725 -4.262385,-4.022725 0.571818,0 7.8436,-1.904206 16.159507,-4.231745 33.787396,-9.456209 41.798716,-11.663892 43.131026,-11.885613 1.16655,-0.194204 1.6855,0.890852 3.16246,6.611938 0.97179,3.764227 4.36491,16.938889 7.54025,29.277206 3.17535,12.33805 5.99811,23.25661 6.2728,24.26308 0.27932,1.02341 0.19529,1.65841 -0.19066,1.44092 -0.37957,-0.21404 -3.18241,-1.85314 -6.22851,-3.64252 -3.04612,-1.78964 -5.65089,-3.12234 -5.78839,-2.96201 -0.1375,0.16061 -2.39964,4.05607 -5.02693,8.65664 -2.62728,4.60084 -10.54393,18.34303 -17.59251,30.53847 -7.04861,12.19544 -13.02462,22.71819 -13.28005,23.38388 -0.42031,1.09537 2.71844,1.2102 33.07662,1.2102 h 33.54102 v 30.79803 30.79803 l -44.67624,-0.0508 c -34.511937,-0.0394 -45.398694,-0.27675 -47.851725,-1.04378 z M 184.86351,149.14426 c -11.23135,-6.36111 -11.46194,-36.27649 -0.33639,-43.63905 5.41112,-3.58087 12.99469,-3.09404 17.19228,1.10358 5.10648,5.10646 7.38224,16.23033 5.62467,27.49338 -1.7312,11.09424 -6.94518,16.79337 -15.34028,16.7677 -2.84961,-0.008 -5.04605,-0.53948 -7.14028,-1.72561 z m 11.60092,-5.30622 c 2.68785,-2.8612 4.1484,-7.44087 4.54395,-14.24807 0.83648,-14.39466 -4.08569,-23.4868 -11.13438,-20.56712 -1.67851,0.69532 -2.93333,2.1791 -4.44378,5.25462 -1.91206,3.89361 -2.10476,5.05169 -2.10476,12.65079 0,9.43398 1.39488,14.4825 4.72501,17.10187 2.62681,2.0664 6.37259,1.98067 8.41396,-0.19209 z m 30.58673,-13.06248 c 0,-10.64074 -0.27614,-19.51725 -0.61362,-19.72574 -0.3375,-0.20876 -2.10481,0.46778 -3.92737,1.50283 -3.54507,2.01375 -4.11377,1.85182 -4.87714,-1.38853 -0.45977,-1.95157 -0.17002,-2.23705 4.82573,-4.75271 3.07856,-1.55046 6.44274,-2.67653 7.99542,-2.67653 h 2.68055 v 23.19338 23.19364 h -3.04179 -3.04178 z m 65.01818,-26.65412 c -0.41825,-0.13944 -8.45997,-2.38019 -17.87049,-4.97893 -25.46196,-7.032096 -40.48847,-11.308556 -40.78753,-11.607535 -0.14637,-0.146315 2.29801,-1.777736 5.43198,-3.625321 3.13396,-1.847585 5.69812,-3.541977 5.69812,-3.765285 0,-0.223309 -4.82336,-8.780463 -10.71859,-19.015869 -5.89524,-10.235406 -14.01001,-24.341666 -18.03284,-31.347304 -4.0228,-7.005372 -7.49781,-12.732014 -7.72221,-12.725664 -0.22442,0.0079 -7.90061,12.999508 -17.05824,28.873714 -9.15762,15.873942 -16.85713,28.749889 -17.11005,28.613364 -0.25291,-0.136525 -6.96166,-4.016374 -14.90831,-8.621977 -7.94669,-4.605602 -19.66707,-11.354858 -26.0453,-14.998699 -6.37825,-3.643842 -11.59682,-6.826515 -11.59682,-7.072577 0,-0.589757 2.76056,-5.496719 14.65231,-26.045054 5.4461,-9.4104355 14.15994,-24.4673436 19.36409,-33.459737 9.86843,-17.051602 12.26015,-20.254648 17.31375,-23.186496 5.54564,-3.217598 9.60342,-3.569758 38.02234,-3.300677 l 26.61563,0.251884 4.18245,2.070629 c 4.67868,2.316162 7.30086,4.442883 9.63621,7.814997 1.50667,2.175669 7.9235,13.206148 32.95758,56.653377 6.14527,10.665354 11.82262,20.501504 12.61634,21.858022 0.79375,1.356784 1.72553,2.468828 2.07066,2.471473 0.34512,0.0026 2.93153,-1.363927 5.74757,-3.036887 5.55749,-3.301735 6.56074,-3.630083 5.9101,-1.934633 -0.42992,1.12051 -4.3498,16.100954 -10.75383,41.097464 -1.92876,7.528454 -3.84548,14.971451 -4.25939,16.539901 -0.69644,2.63895 -1.37367,3.13901 -3.35553,2.47782 z"
       id="path56" />
  </g>
</svg>
